<?xml version="1.0" encoding="utf-8"?>
<!-- Generator: Adobe Illustrator 28.3.0, SVG Export Plug-In . SVG Version: 6.00 Build 0)  -->
<svg version="1.1" id="Layer_1" xmlns="http://www.w3.org/2000/svg" xmlns:xlink="http://www.w3.org/1999/xlink" x="0px" y="0px"
	 viewBox="0 0 32 32" style="enable-background:new 0 0 32 32;" xml:space="preserve">
<style type="text/css">
	.st0{fill-rule:evenodd;clip-rule:evenodd;fill:#FFFFFF;}
</style>
<path class="st0" d="M25,19.5c0-3-2.5-5.5-5.5-5.5H9.1l4.4,4.4c0.6,0.6,0.6,1.5,0.1,2.1c-0.6,0.6-1.5,0.6-2.1,0.1c0,0-0.1,0-0.1-0.1
	l-7-7c-0.6-0.6-0.6-1.5,0-2.1l7-7C12,3.9,13,3.9,13.6,4.5c0.5,0.6,0.5,1.5,0,2L9.1,11h10.4c4.7,0,8.5,3.8,8.5,8.5S24.2,28,19.5,28
	h-2c-0.8,0-1.5-0.7-1.5-1.5s0.7-1.5,1.5-1.5h2C22.5,25,25,22.5,25,19.5"/>
</svg>
